<svg xmlns="http://www.w3.org/2000/svg" xmlns:xlink="http://www.w3.org/1999/xlink" width="431.218" height="106.921" viewBox="0 0 431.218 106.921">
  <defs>
    <linearGradient id="linear-gradient" x1="0.874" y1="0.034" x2="0.11" y2="0.986" gradientUnits="objectBoundingBox">
      <stop offset="0" stop-color="#ff9b0c"/>
      <stop offset="0.204" stop-color="#ff940e"/>
      <stop offset="0.492" stop-color="#ff8215"/>
      <stop offset="0.827" stop-color="#ff6421"/>
      <stop offset="0.997" stop-color="#ff5229"/>
    </linearGradient>
    <linearGradient id="linear-gradient-2" x1="0.5" y1="0.027" x2="0.5" y2="0.994" gradientUnits="objectBoundingBox">
      <stop offset="0" stop-color="#eda5ff"/>
      <stop offset="0.175" stop-color="#efa9e5"/>
      <stop offset="0.549" stop-color="#f5b3a4"/>
      <stop offset="1" stop-color="#fec24f"/>
    </linearGradient>
    <linearGradient id="linear-gradient-3" y1="0.5" x2="1" y2="0.5" gradientUnits="objectBoundingBox">
      <stop offset="0" stop-color="#65ed00"/>
      <stop offset="0.997" stop-color="#0096ff"/>
    </linearGradient>
    <linearGradient id="linear-gradient-4" y1="0.5" x2="1" y2="0.5" gradientUnits="objectBoundingBox">
      <stop offset="0.003" stop-color="#0096ff"/>
      <stop offset="1" stop-color="#65ed00"/>
    </linearGradient>
    <linearGradient id="linear-gradient-5" x1="0.943" y1="0.044" x2="0.027" y2="0.986" xlink:href="#linear-gradient-3"/>
    <linearGradient id="linear-gradient-6" x1="0.131" y1="0.029" x2="0.889" y2="0.996" gradientUnits="objectBoundingBox">
      <stop offset="0.003" stop-color="#ffe86a"/>
      <stop offset="1" stop-color="#ffb782"/>
    </linearGradient>
    <linearGradient id="linear-gradient-7" x1="0.049" y1="0.044" x2="0.965" y2="0.971" gradientUnits="objectBoundingBox">
      <stop offset="0" stop-color="#ff9b0c"/>
      <stop offset="0.997" stop-color="#ff5229"/>
    </linearGradient>
    <linearGradient id="linear-gradient-8" x1="0.5" y1="0.056" x2="0.5" y2="0.891" gradientUnits="objectBoundingBox">
      <stop offset="0" stop-color="#fec24f"/>
      <stop offset="1" stop-color="#efa9e6"/>
    </linearGradient>
  </defs>
  <g id="Logo" transform="translate(0)">
    <g id="Group_3141" data-name="Group 3141" transform="translate(-3863 3269.825)">
      <path id="Path_1650" data-name="Path 1650" d="M-143.156-13.2-148.115,0h-2.508L-155.6-13.2h2.318l3.914,10.982,3.933-10.982Zm12.73,7.714a6.771,6.771,0,0,1-.076,1.064h-8a2.9,2.9,0,0,0,.931,2.014,2.939,2.939,0,0,0,2.052.76,2.534,2.534,0,0,0,2.47-1.463h2.337A4.716,4.716,0,0,1-132.43-.751a5.045,5.045,0,0,1-3.088.922A5.347,5.347,0,0,1-138.206-.5a4.8,4.8,0,0,1-1.862-1.9,5.8,5.8,0,0,1-.674-2.841,5.932,5.932,0,0,1,.656-2.841,4.61,4.61,0,0,1,1.843-1.89,5.485,5.485,0,0,1,2.726-.665,5.332,5.332,0,0,1,2.641.646,4.565,4.565,0,0,1,1.8,1.815A5.465,5.465,0,0,1-130.425-5.491Zm-2.261-.684a2.465,2.465,0,0,0-.855-1.919,3.057,3.057,0,0,0-2.071-.722,2.782,2.782,0,0,0-1.919.713,2.978,2.978,0,0,0-.95,1.928Zm11-4.465a4.7,4.7,0,0,1,2.214.513,3.648,3.648,0,0,1,1.529,1.52,5,5,0,0,1,.551,2.432V0h-2.147V-5.852a3.039,3.039,0,0,0-.7-2.157,2.5,2.5,0,0,0-1.919-.75,2.533,2.533,0,0,0-1.929.75,3.013,3.013,0,0,0-.712,2.157V0h-2.166V-10.469h2.166v1.2a3.585,3.585,0,0,1,1.358-1.007A4.343,4.343,0,0,1-121.686-10.64ZM-110.78-8.7v5.795a1.112,1.112,0,0,0,.275.846,1.37,1.37,0,0,0,.94.256h1.33V0h-1.71a3.3,3.3,0,0,1-2.242-.684,2.819,2.819,0,0,1-.779-2.223V-8.7H-114.2v-1.767h1.235v-2.6h2.185v2.6h2.546V-8.7Zm15.352-1.767V0h-2.166V-1.235a3.506,3.506,0,0,1-1.34,1.016,4.247,4.247,0,0,1-1.757.371A4.7,4.7,0,0,1-102.9-.361a3.706,3.706,0,0,1-1.539-1.52A4.931,4.931,0,0,1-105-4.313v-6.156h2.147v5.833a3.039,3.039,0,0,0,.7,2.157,2.5,2.5,0,0,0,1.919.751,2.533,2.533,0,0,0,1.929-.751,3.013,3.013,0,0,0,.712-2.157v-5.833Zm6.346,1.52a3.4,3.4,0,0,1,1.263-1.245,3.737,3.737,0,0,1,1.871-.447V-8.4H-86.5a2.638,2.638,0,0,0-1.929.646,3.089,3.089,0,0,0-.655,2.242V0h-2.166V-10.469h2.166Zm16.055,3.458A6.772,6.772,0,0,1-73.1-4.427h-8a2.9,2.9,0,0,0,.931,2.014,2.939,2.939,0,0,0,2.052.76,2.534,2.534,0,0,0,2.47-1.463h2.337A4.716,4.716,0,0,1-75.031-.751a5.045,5.045,0,0,1-3.088.922A5.347,5.347,0,0,1-80.807-.5a4.8,4.8,0,0,1-1.862-1.9,5.8,5.8,0,0,1-.674-2.841,5.932,5.932,0,0,1,.655-2.841,4.61,4.61,0,0,1,1.843-1.89,5.485,5.485,0,0,1,2.727-.665,5.332,5.332,0,0,1,2.641.646,4.565,4.565,0,0,1,1.805,1.815A5.465,5.465,0,0,1-73.027-5.491Zm-2.261-.684a2.465,2.465,0,0,0-.855-1.919,3.057,3.057,0,0,0-2.071-.722,2.782,2.782,0,0,0-1.919.713,2.978,2.978,0,0,0-.95,1.928Zm19.057-.608a2.92,2.92,0,0,1,1.805,1.121,3.3,3.3,0,0,1,.741,2.109,3.268,3.268,0,0,1-.523,1.815,3.541,3.541,0,0,1-1.51,1.273,5.34,5.34,0,0,1-2.3.465H-63.3V-13.2h5.035a5.4,5.4,0,0,1,2.318.456,3.4,3.4,0,0,1,1.463,1.226,3.116,3.116,0,0,1,.494,1.72A2.945,2.945,0,0,1-54.6-7.9,3.54,3.54,0,0,1-56.231-6.783Zm-4.9-.874h2.679a2.573,2.573,0,0,0,1.662-.484,1.692,1.692,0,0,0,.6-1.4,1.726,1.726,0,0,0-.6-1.4,2.506,2.506,0,0,0-1.662-.5h-2.679Zm2.926,5.89A2.589,2.589,0,0,0-56.478-2.3a1.838,1.838,0,0,0,.627-1.482,1.923,1.923,0,0,0-.665-1.539,2.622,2.622,0,0,0-1.767-.57h-2.85v4.123Zm17.8-3.724a6.772,6.772,0,0,1-.076,1.064h-8a2.9,2.9,0,0,0,.931,2.014,2.939,2.939,0,0,0,2.052.76,2.534,2.534,0,0,0,2.47-1.463h2.337a4.716,4.716,0,0,1-1.72,2.366A5.045,5.045,0,0,1-45.5.171,5.347,5.347,0,0,1-48.184-.5a4.8,4.8,0,0,1-1.862-1.9,5.8,5.8,0,0,1-.674-2.841,5.932,5.932,0,0,1,.656-2.841,4.61,4.61,0,0,1,1.843-1.89A5.485,5.485,0,0,1-45.5-10.64a5.332,5.332,0,0,1,2.641.646,4.565,4.565,0,0,1,1.805,1.815A5.465,5.465,0,0,1-40.4-5.491Zm-2.261-.684a2.465,2.465,0,0,0-.855-1.919,3.057,3.057,0,0,0-2.071-.722,2.782,2.782,0,0,0-1.919.713,2.978,2.978,0,0,0-.95,1.928Zm15.143-4.294-6.422,15.39h-2.242l2.128-5.092-4.123-10.3h2.413l2.945,7.98,3.059-7.98ZM-20.016.171A5.361,5.361,0,0,1-22.7-.5a4.845,4.845,0,0,1-1.881-1.9,5.731,5.731,0,0,1-.684-2.841,5.621,5.621,0,0,1,.7-2.831,4.856,4.856,0,0,1,1.919-1.9,5.568,5.568,0,0,1,2.717-.665,5.568,5.568,0,0,1,2.717.665,4.856,4.856,0,0,1,1.919,1.9,5.621,5.621,0,0,1,.7,2.831A5.5,5.5,0,0,1-15.3-2.413,5,5,0,0,1-17.271-.5,5.668,5.668,0,0,1-20.016.171Zm0-1.881a3.223,3.223,0,0,0,1.568-.4,3.04,3.04,0,0,0,1.188-1.2,3.848,3.848,0,0,0,.456-1.938,3.928,3.928,0,0,0-.437-1.929A2.95,2.95,0,0,0-18.4-8.36a3.17,3.17,0,0,0-1.558-.4,3.117,3.117,0,0,0-1.549.4,2.848,2.848,0,0,0-1.13,1.187,4.075,4.075,0,0,0-.418,1.929,3.673,3.673,0,0,0,.865,2.612A2.857,2.857,0,0,0-20.016-1.71Zm14.193-8.93a4.7,4.7,0,0,1,2.214.513,3.648,3.648,0,0,1,1.53,1.52A5,5,0,0,1-1.53-6.175V0H-3.677V-5.852a3.039,3.039,0,0,0-.7-2.157A2.5,2.5,0,0,0-6.3-8.759a2.533,2.533,0,0,0-1.929.75A3.013,3.013,0,0,0-8.94-5.852V0h-2.166V-10.469H-8.94v1.2a3.585,3.585,0,0,1,1.359-1.007A4.343,4.343,0,0,1-5.824-10.64ZM1.833-5.282a5.794,5.794,0,0,1,.655-2.793A4.8,4.8,0,0,1,4.275-9.965a4.82,4.82,0,0,1,2.518-.675,4.91,4.91,0,0,1,2.023.447A4.14,4.14,0,0,1,10.4-9.006V-14.06h2.185V0H10.4V-1.577A4.055,4.055,0,0,1,8.93-.323,4.569,4.569,0,0,1,6.773.171a4.685,4.685,0,0,1-2.5-.693A4.895,4.895,0,0,1,2.489-2.461,5.962,5.962,0,0,1,1.833-5.282Zm8.569.038a3.791,3.791,0,0,0-.446-1.881A3.134,3.134,0,0,0,8.787-8.341a3.057,3.057,0,0,0-1.558-.418,3.112,3.112,0,0,0-1.558.408A3.081,3.081,0,0,0,4.5-7.154a3.737,3.737,0,0,0-.447,1.872,3.9,3.9,0,0,0,.447,1.9A3.15,3.15,0,0,0,5.681-2.138a3.021,3.021,0,0,0,1.549.428,3.057,3.057,0,0,0,1.558-.418A3.119,3.119,0,0,0,9.956-3.353,3.845,3.845,0,0,0,10.4-5.244ZM25.565-8.7v5.795a1.112,1.112,0,0,0,.276.846,1.37,1.37,0,0,0,.94.256h1.33V0H26.4a3.3,3.3,0,0,1-2.242-.684,2.819,2.819,0,0,1-.779-2.223V-8.7H22.145v-1.767H23.38v-2.6h2.185v2.6h2.546V-8.7ZM36.85-10.64a4.391,4.391,0,0,1,2.138.513,3.651,3.651,0,0,1,1.482,1.52,5.072,5.072,0,0,1,.542,2.432V0H38.864V-5.852a3.039,3.039,0,0,0-.7-2.157,2.5,2.5,0,0,0-1.919-.75,2.533,2.533,0,0,0-1.929.75A3.013,3.013,0,0,0,33.6-5.852V0H31.435V-14.06H33.6v4.807A3.632,3.632,0,0,1,35-10.279,4.669,4.669,0,0,1,36.85-10.64ZM54.691-5.491a6.772,6.772,0,0,1-.076,1.064h-8a2.9,2.9,0,0,0,.931,2.014,2.939,2.939,0,0,0,2.052.76,2.534,2.534,0,0,0,2.47-1.463h2.337a4.716,4.716,0,0,1-1.72,2.366A5.045,5.045,0,0,1,49.6.171,5.347,5.347,0,0,1,46.911-.5a4.8,4.8,0,0,1-1.862-1.9,5.8,5.8,0,0,1-.674-2.841,5.932,5.932,0,0,1,.656-2.841,4.61,4.61,0,0,1,1.843-1.89A5.485,5.485,0,0,1,49.6-10.64a5.332,5.332,0,0,1,2.641.646,4.565,4.565,0,0,1,1.805,1.815A5.465,5.465,0,0,1,54.691-5.491ZM52.43-6.175a2.465,2.465,0,0,0-.855-1.919A3.057,3.057,0,0,0,49.5-8.816a2.782,2.782,0,0,0-1.919.713,2.978,2.978,0,0,0-.95,1.928ZM70.442.133a6.84,6.84,0,0,1-3.391-.864A6.406,6.406,0,0,1,64.6-3.145a6.8,6.8,0,0,1-.9-3.487,6.744,6.744,0,0,1,.9-3.477,6.426,6.426,0,0,1,2.451-2.4,6.84,6.84,0,0,1,3.391-.864,6.877,6.877,0,0,1,3.41.864,6.358,6.358,0,0,1,2.442,2.4,6.8,6.8,0,0,1,.893,3.477,6.852,6.852,0,0,1-.893,3.487A6.338,6.338,0,0,1,73.853-.731,6.877,6.877,0,0,1,70.442.133Zm0-1.881a4.552,4.552,0,0,0,2.337-.6,4.149,4.149,0,0,0,1.605-1.71,5.491,5.491,0,0,0,.579-2.575A5.433,5.433,0,0,0,74.385-9.2a4.1,4.1,0,0,0-1.605-1.691,4.609,4.609,0,0,0-2.337-.589,4.609,4.609,0,0,0-2.337.589A4.1,4.1,0,0,0,66.5-9.2a5.433,5.433,0,0,0-.579,2.565A5.491,5.491,0,0,0,66.5-4.056a4.149,4.149,0,0,0,1.605,1.71A4.552,4.552,0,0,0,70.442-1.748Zm12.369-7.2a3.4,3.4,0,0,1,1.263-1.245,3.737,3.737,0,0,1,1.871-.447V-8.4H85.4a2.638,2.638,0,0,0-1.929.646,3.089,3.089,0,0,0-.655,2.242V0H80.646V-10.469h2.166Zm5.738,3.667A5.794,5.794,0,0,1,89.2-8.075a4.8,4.8,0,0,1,1.786-1.891,4.82,4.82,0,0,1,2.518-.675,4.91,4.91,0,0,1,2.023.447,4.14,4.14,0,0,1,1.587,1.187V-14.06H99.3V0H97.118V-1.577A4.055,4.055,0,0,1,95.646-.323a4.569,4.569,0,0,1-2.157.494,4.685,4.685,0,0,1-2.5-.693A4.895,4.895,0,0,1,89.2-2.461,5.962,5.962,0,0,1,88.549-5.282Zm8.569.038a3.791,3.791,0,0,0-.447-1.881A3.134,3.134,0,0,0,95.5-8.341a3.057,3.057,0,0,0-1.558-.418,3.112,3.112,0,0,0-1.558.408,3.081,3.081,0,0,0-1.169,1.2,3.737,3.737,0,0,0-.446,1.872,3.9,3.9,0,0,0,.446,1.9A3.15,3.15,0,0,0,92.4-2.138a3.021,3.021,0,0,0,1.549.428A3.057,3.057,0,0,0,95.5-2.128a3.119,3.119,0,0,0,1.169-1.225A3.845,3.845,0,0,0,97.118-5.244Zm7.467-6.612a1.342,1.342,0,0,1-.988-.4,1.342,1.342,0,0,1-.4-.988,1.342,1.342,0,0,1,.4-.988,1.342,1.342,0,0,1,.988-.4,1.319,1.319,0,0,1,.969.4,1.342,1.342,0,0,1,.4.988,1.342,1.342,0,0,1-.4.988A1.319,1.319,0,0,1,104.585-11.856Zm1.064,1.387V0h-2.166V-10.469Zm9.462-.171a4.7,4.7,0,0,1,2.214.513,3.648,3.648,0,0,1,1.529,1.52,5,5,0,0,1,.551,2.432V0h-2.147V-5.852a3.039,3.039,0,0,0-.7-2.157,2.5,2.5,0,0,0-1.919-.75,2.533,2.533,0,0,0-1.929.75A3.013,3.013,0,0,0,112-5.852V0h-2.166V-10.469H112v1.2a3.585,3.585,0,0,1,1.358-1.007A4.343,4.343,0,0,1,115.111-10.64Zm7.657,5.358a5.794,5.794,0,0,1,.655-2.793,4.8,4.8,0,0,1,1.786-1.891,4.785,4.785,0,0,1,2.5-.675,4.57,4.57,0,0,1,2.157.484,4.376,4.376,0,0,1,1.473,1.207v-1.52h2.185V0h-2.185V-1.558a4.3,4.3,0,0,1-1.5,1.235,4.626,4.626,0,0,1-2.166.494,4.6,4.6,0,0,1-2.47-.693,4.918,4.918,0,0,1-1.777-1.938A5.962,5.962,0,0,1,122.769-5.282Zm8.569.038a3.791,3.791,0,0,0-.447-1.881,3.134,3.134,0,0,0-1.169-1.216,3.057,3.057,0,0,0-1.558-.418,3.112,3.112,0,0,0-1.558.408,3.081,3.081,0,0,0-1.169,1.2,3.737,3.737,0,0,0-.446,1.872,3.9,3.9,0,0,0,.446,1.9,3.15,3.15,0,0,0,1.178,1.244,3.021,3.021,0,0,0,1.549.428,3.057,3.057,0,0,0,1.558-.418,3.118,3.118,0,0,0,1.169-1.225A3.845,3.845,0,0,0,131.338-5.244Zm8.531-3.7a3.4,3.4,0,0,1,1.264-1.245A3.737,3.737,0,0,1,143-10.64V-8.4h-.551a2.638,2.638,0,0,0-1.928.646,3.089,3.089,0,0,0-.656,2.242V0H137.7V-10.469h2.166Zm15.884-1.52L149.33,4.921h-2.242l2.128-5.092-4.123-10.3h2.413l2.945,7.98,3.059-7.98Z" transform="translate(4138 -3182.497)" fill="#303030"/>
      <path id="Path_1580" data-name="Path 1580" d="M286.865-95.046a10.593,10.593,0,0,1-4.259-8.394h10.473a3.907,3.907,0,0,0,1.1,2.706,3.538,3.538,0,0,0,2.455.851,3.547,3.547,0,0,0,2.23-.676,2.242,2.242,0,0,0,.877-1.879,2.659,2.659,0,0,0-1.453-2.406,25.686,25.686,0,0,0-4.711-1.9,42.19,42.19,0,0,1-5.587-2.23,10.7,10.7,0,0,1-3.708-3.157,8.753,8.753,0,0,1-1.578-5.437,9.912,9.912,0,0,1,1.7-5.839,10.535,10.535,0,0,1,4.71-3.683,17.589,17.589,0,0,1,6.816-1.253q6.163,0,9.847,2.882a10.367,10.367,0,0,1,3.933,8.093H299.043a3.153,3.153,0,0,0-.977-2.406,3.517,3.517,0,0,0-2.38-.8,2.547,2.547,0,0,0-1.8.651,2.4,2.4,0,0,0-.7,1.854,2.283,2.283,0,0,0,.777,1.728,7.118,7.118,0,0,0,1.929,1.253q1.152.526,3.408,1.327a42.071,42.071,0,0,1,5.536,2.28,11.3,11.3,0,0,1,3.758,3.158,8.114,8.114,0,0,1,1.579,5.136,10.4,10.4,0,0,1-1.579,5.663,10.834,10.834,0,0,1-4.559,3.959,15.9,15.9,0,0,1-7.041,1.453A16.564,16.564,0,0,1,286.865-95.046Z" transform="translate(3697.92 -3119.689)" fill="#303030"/>
      <path id="Path_1581" data-name="Path 1581" d="M362.514-127.606,350.337-92.277H337.759l-12.227-35.329h10.523l8.018,25.506,7.968-25.506Z" transform="translate(3687.015 -3119.877)" fill="#303030"/>
      <path id="Path_1582" data-name="Path 1582" d="M399.322-119.432a15.663,15.663,0,0,1,6.188-6.365,18.326,18.326,0,0,1,9.221-2.28,17.49,17.49,0,0,1,11.125,3.533,16.029,16.029,0,0,1,5.812,9.6H421.1A7.089,7.089,0,0,0,418.464-118a7.157,7.157,0,0,0-3.883-1.053,6.722,6.722,0,0,0-5.438,2.43,9.8,9.8,0,0,0-2.029,6.489,9.883,9.883,0,0,0,2.029,6.54,6.722,6.722,0,0,0,5.438,2.43,7.158,7.158,0,0,0,3.883-1.053,7.085,7.085,0,0,0,2.631-3.056h10.573a16.029,16.029,0,0,1-5.812,9.6,17.49,17.49,0,0,1-11.125,3.533,18.311,18.311,0,0,1-9.221-2.28,15.652,15.652,0,0,1-6.188-6.364,19.542,19.542,0,0,1-2.18-9.346A19.434,19.434,0,0,1,399.322-119.432Z" transform="translate(3668.823 -3119.758)" fill="#303030"/>
      <path id="Path_1583" data-name="Path 1583" d="M474.563-98.04H462.035l-1.9,5.763H449.809l12.878-35.329h11.326l12.828,35.329H476.467Zm-2.455-7.517L468.3-116.982l-3.759,11.425Z" transform="translate(3655.443 -3119.877)" fill="#303030"/>
      <path id="Path_1584" data-name="Path 1584" d="M533.543-109.992a10.685,10.685,0,0,1-4.46,4.209,15.429,15.429,0,0,1-7.291,1.578h-4.861v11.926h-9.822v-35.329h14.683a15.943,15.943,0,0,1,7.241,1.5,10.34,10.34,0,0,1,4.485,4.159,12.21,12.21,0,0,1,1.5,6.114A11.721,11.721,0,0,1,533.543-109.992ZM525-115.83q0-3.858-4.16-3.859h-3.909v7.667h3.909Q525-112.021,525-115.83Z" transform="translate(3640.886 -3119.877)" fill="#303030"/>
      <path id="Path_1585" data-name="Path 1585" d="M563.013-127.606v35.329h-9.822v-35.329Z" transform="translate(3629.18 -3119.877)" fill="#303030"/>
      <path id="Path_1586" data-name="Path 1586" d="M603.184-127.606v7.818h-9.421v27.511h-9.822v-27.511h-9.32v-7.818Z" transform="translate(3623.735 -3119.877)" fill="#303030"/>
      <path id="Path_1587" data-name="Path 1587" d="M642.7-98.04H630.176l-1.9,5.763H617.949l12.878-35.329h11.325L654.98-92.277H644.608Zm-2.456-7.517-3.809-11.425-3.758,11.425Z" transform="translate(3612.728 -3119.877)" fill="#303030"/>
      <path id="Path_1588" data-name="Path 1588" d="M685.071-99.794h10.974v7.517h-20.8v-35.329h9.822Z" transform="translate(3598.172 -3119.877)" fill="#303030"/>
      <g id="Group_3141-2" data-name="Group 3141" transform="translate(3863 -3269.825)">
        <path id="Path_1613" data-name="Path 1613" d="M186.837-78.041s-10.411-21.618-.073-41.726,33.975-24.223,33.975-24.223,10.41,21.619.073,41.727S186.837-78.041,186.837-78.041Z" transform="translate(-139.569 157.969)" opacity="0.8" fill="url(#linear-gradient)"/>
        <path id="Path_1614" data-name="Path 1614" d="M180.963-82.708s20.658-15.612,20.658-40.011-20.658-40.011-20.658-40.011-20.657,15.612-20.657,40.011S180.963-82.708,180.963-82.708Z" transform="translate(-134.01 162.73)" opacity="0.8" fill="url(#linear-gradient-2)"/>
        <path id="Path_1616" data-name="Path 1616" d="M144.026-46.878a18.793,18.793,0,0,0,12.588,5.087A18.791,18.791,0,0,0,169.2-46.877a18.79,18.79,0,0,0-12.587-5.087A18.8,18.8,0,0,0,144.026-46.878Z" transform="translate(-129.874 134.591)" opacity="0.8" fill="url(#linear-gradient-3)"/>
        <path id="Path_1617" data-name="Path 1617" d="M197.115-46.878A18.79,18.79,0,0,0,209.7-41.791a18.794,18.794,0,0,0,12.588-5.086A18.793,18.793,0,0,0,209.7-51.964,18.791,18.791,0,0,0,197.115-46.878Z" transform="translate(-143.362 134.591)" opacity="0.8" fill="url(#linear-gradient-4)"/>
        <path id="Path_1618" data-name="Path 1618" d="M188.193-71.689s-2.935-21.1,11.262-35.3,35.3-11.261,35.3-11.261,2.936,21.1-11.261,35.3S188.193-71.689,188.193-71.689Z" transform="translate(-141.031 151.494)" opacity="0.8" fill="url(#linear-gradient-5)"/>
        <path id="Path_1619" data-name="Path 1619" d="M174.433-78.041s10.411-21.618.074-41.726-33.975-24.223-33.975-24.223-10.411,21.619-.074,41.727S174.433-78.041,174.433-78.041Z" transform="translate(-127.806 157.969)" opacity="0.8" fill="url(#linear-gradient-6)"/>
        <path id="Path_1620" data-name="Path 1620" d="M171.87-71.689s2.935-21.1-11.262-35.3-35.3-11.261-35.3-11.261-2.935,21.1,11.262,35.3S171.87-71.689,171.87-71.689Z" transform="translate(-125.055 151.494)" opacity="0.8" fill="url(#linear-gradient-7)"/>
        <path id="Path_1615" data-name="Path 1615" d="M186.27-26.09s5.074-3.835,5.074-9.827-5.074-9.828-5.074-9.828S181.2-41.91,181.2-35.917,186.27-26.09,186.27-26.09Z" transform="translate(-139.318 133.01)" opacity="0.8" fill="url(#linear-gradient-8)"/>
        <g id="Group_3038" data-name="Group 3038" transform="translate(89.187 13.441)">
          <path id="Path_1623" data-name="Path 1623" d="M122.615,18.018v.674H121.5v3.491h-.835V18.693h-1.11v-.674Z" transform="translate(-119.559 -18.018)" fill="#303030"/>
          <path id="Path_1624" data-name="Path 1624" d="M128.87,18.018l-1.325,3.1-1.324-3.1h-.95v4.166h.836v-2.71l1.121,2.71h.633l1.116-2.71v2.71h.836V18.018Z" transform="translate(-121.01 -18.018)" fill="#303030"/>
        </g>
      </g>
    </g>
  </g>
</svg>
