<?xml version="1.0" encoding="utf-8"?>
<!-- Generator: Adobe Illustrator 16.0.0, SVG Export Plug-In . SVG Version: 6.00 Build 0)  -->
<!DOCTYPE svg PUBLIC "-//W3C//DTD SVG 1.1//EN" "http://www.w3.org/Graphics/SVG/1.1/DTD/svg11.dtd">
<svg version="1.1" id="Layer_1" xmlns="http://www.w3.org/2000/svg" xmlns:xlink="http://www.w3.org/1999/xlink" x="0px" y="0px"
	 width="180px" height="180px" viewBox="0 0 180 180" enable-background="new 0 0 180 180" xml:space="preserve">
<title>Coronation_Symbol_RGB</title>
<path fill="#2C3B97" d="M74.971,34.272h10.254V44.45c0,0.847,0.687,1.534,1.534,1.534h6.396c0.848,0,1.533-0.687,1.533-1.534V34.272
	h10.285c0.848,0,1.534-0.687,1.534-1.534v-6.381c0-0.847-0.687-1.534-1.534-1.534H94.767V14.584c0-0.847-0.687-1.534-1.534-1.534
	h-6.396c-0.847,0-1.534,0.687-1.534,1.534v10.162H75.025c-0.847,0-1.534,0.687-1.534,1.534v6.381
	c-0.043,0.846,0.608,1.566,1.454,1.609C74.954,34.271,74.962,34.271,74.971,34.272z M124.164,35.676
	c3.389,0,6.137-2.747,6.137-6.136s-2.748-6.136-6.137-6.136s-6.135,2.747-6.135,6.136S120.775,35.676,124.164,35.676L124.164,35.676
	z M32.727,35.676c3.389-0.021,6.119-2.786,6.097-6.174c-0.021-3.389-2.785-6.118-6.174-6.097c-3.374,0.021-6.097,2.762-6.098,6.136
	C26.574,32.935,29.332,35.676,32.727,35.676L32.727,35.676z M55.958,35.676c3.389,0,6.136-2.747,6.136-6.136
	s-2.747-6.136-6.136-6.136s-6.136,2.747-6.136,6.136S52.569,35.676,55.958,35.676L55.958,35.676z M147.305,35.676
	c3.389,0,6.135-2.747,6.135-6.136s-2.746-6.136-6.135-6.136s-6.137,2.747-6.137,6.136S143.916,35.676,147.305,35.676L147.305,35.676
	z M151.715,155.99H27.933c-0.955-0.075-1.789,0.639-1.864,1.592c-0.021,0.263,0.019,0.525,0.115,0.771l2.432,6.749
	c0.767,1.986,1.741,1.887,3.551,1.849h115.697c1.818,0.038,2.785,0.138,3.552-1.849l2.416-6.757
	C154.223,157.117,153.232,155.99,151.715,155.99L151.715,155.99z M173.864,60.947c-6.247-8.938-16.445-14.286-27.351-14.342
	c-2.992-0.004-5.973,0.383-8.865,1.15L89.973,61.338L42.352,47.755c-2.894-0.778-5.877-1.175-8.874-1.181
	c-10.904,0.059-21.101,5.406-27.35,14.342c-6.327,8.889-7.871,20.323-4.126,30.572l16.206,45.396
	c1.666,4.651,6.073,7.757,11.014,7.762h121.557c4.94-0.005,9.348-3.11,11.014-7.762l16.198-45.396
	C181.729,81.25,180.186,69.827,173.864,60.947z M31.016,133.25c-1.276,0-2.415-0.801-2.845-2.002L12.586,87.584
	c-2.492-6.795-1.474-14.382,2.723-20.279c4.126-5.947,10.885-9.52,18.124-9.579c2.006-0.005,4.005,0.252,5.944,0.767l29.122,7.869
	c-12.763,4.931-19.111,19.274-14.181,32.037c0.005,0.013,0.01,0.025,0.015,0.038l13.483,34.82L31.016,133.25z M100.979,131.033
	c-0.559,1.419-1.926,2.355-3.451,2.361H82.464c-1.523-0.008-2.888-0.943-3.443-2.361L64.87,94.541
	c-2.701-6.949,0.742-14.771,7.691-17.473c0.459-0.179,0.929-0.332,1.405-0.459l16.007-4.311l16.03,4.303
	c7.206,1.912,11.497,9.303,9.585,16.508c-0.129,0.486-0.283,0.963-0.466,1.432L100.979,131.033z M167.368,87.73l-15.569,43.625
	c-0.44,1.197-1.577,1.998-2.854,2.009h-36.814l13.483-34.82c4.933-12.76-1.408-27.104-14.166-32.044l29.146-7.815
	c1.939-0.514,3.938-0.771,5.943-0.767c7.236,0.048,13.996,3.613,18.123,9.557C168.842,73.369,169.854,80.944,167.368,87.73z"/>
</svg>
