<svg width="168" height="38" viewBox="0 0 168 38" fill="none" xmlns="http://www.w3.org/2000/svg">
<path d="M13.6037 12.5379C13.7729 12.7062 13.7729 12.9797 13.6037 13.148C11.8688 14.852 10.1128 15.5672 7.70099 15.5672C3.30042 15.5672 0 12.2434 0 7.8257V7.78362C0 3.34485 3.36389 0 7.80677 0C10.1128 0 11.8688 0.652141 13.4979 2.12472C13.6671 2.27198 13.6883 2.54545 13.5402 2.71375L12.292 4.14425C12.2073 4.2284 12.1227 4.27047 11.9958 4.29151C11.8688 4.29151 11.763 4.27047 11.6784 4.18633C10.409 3.07137 9.2031 2.58753 7.80677 2.58753C5.05642 2.58753 2.96192 4.79639 2.96192 7.74155V7.78362C2.96192 10.7288 5.03526 12.9587 7.80677 12.9587C9.56277 12.9587 10.6629 12.2855 11.8054 11.2757C11.9746 11.1285 12.2285 11.1285 12.3977 11.2968L13.6037 12.5379ZM31.9252 7.74155V7.78362C31.9252 12.1382 28.4344 15.5672 23.9915 15.5672C19.4852 15.5672 16.1001 12.2434 16.1001 7.8257V7.78362C16.1001 3.429 19.591 0 24.0339 0C28.5402 0 31.9252 3.32382 31.9252 7.74155ZM28.9845 7.78362C28.9845 4.81743 26.8477 2.58753 23.9915 2.58753C21.1777 2.58753 19.0409 4.79639 19.0409 7.74155V7.78362C19.0409 10.7288 21.1777 12.9587 24.0339 12.9587C26.8477 12.9587 28.9845 10.7498 28.9845 7.8257V7.78362ZM67.5741 7.74155V7.78362C67.5741 12.1382 64.0832 15.5672 59.6403 15.5672C55.134 15.5672 51.7489 12.2434 51.7489 7.8257V7.78362C51.7489 3.429 55.2398 0 59.6827 0C64.189 0 67.5741 3.32382 67.5741 7.74155ZM64.6333 7.78362C64.6333 4.81743 62.4965 2.58753 59.6403 2.58753C56.8265 2.58753 54.6897 4.79639 54.6897 7.74155V7.78362C54.6897 10.7288 56.8265 12.9587 59.6827 12.9587C62.4965 12.9587 64.6333 10.7498 64.6333 7.8257V7.78362ZM115.451 0.252441H103.984C103.752 0.252441 103.561 0.441773 103.561 0.673178V2.44027C103.561 2.67168 103.752 2.86101 103.984 2.86101H108.3V14.873C108.3 15.1044 108.491 15.2938 108.724 15.2938H110.712C110.945 15.2938 111.135 15.1044 111.135 14.873V2.86101H115.451C115.684 2.86101 115.874 2.67168 115.874 2.44027V0.673178C115.896 0.441773 115.705 0.252441 115.451 0.252441ZM122.221 0.252441H120.254C120.021 0.252441 119.831 0.441773 119.831 0.673178V14.873C119.831 15.1044 120.021 15.2938 120.254 15.2938H122.221C122.454 15.2938 122.645 15.1044 122.645 14.873V0.673178C122.645 0.441773 122.454 0.252441 122.221 0.252441ZM142.447 7.74155V7.78362C142.447 12.1382 138.956 15.5672 134.513 15.5672C130.007 15.5672 126.622 12.2434 126.622 7.8257V7.78362C126.622 3.429 130.113 0 134.556 0C139.041 0 142.447 3.32382 142.447 7.74155ZM139.485 7.78362C139.485 4.81743 137.348 2.58753 134.492 2.58753C131.678 2.58753 129.542 4.79639 129.542 7.74155V7.78362C129.542 10.7288 131.678 12.9587 134.535 12.9587C137.348 12.9587 139.485 10.7498 139.485 7.8257V7.78362ZM103.223 15.1255C103.138 15.2517 103.011 15.3148 102.863 15.3148H101.319C100.621 15.2307 100.388 14.9151 100.303 14.7889L100.282 14.7258L99.0762 11.8648C99.0339 11.7806 98.9492 11.7175 98.8646 11.7175H92.2426C92.158 11.7175 92.0733 11.7806 92.031 11.8648L90.7828 14.7889C90.6982 14.9361 90.4655 15.2517 89.7461 15.3148H88.3075C88.1594 15.3148 88.0324 15.2517 87.9478 15.1255C87.8632 14.9992 87.8632 14.852 87.9055 14.7258L94.189 0.420736C94.2525 0.273479 94.4006 0.168295 94.591 0.168295H96.6009C96.7701 0.168295 96.9182 0.273479 97.0028 0.420736L103.286 14.7258C103.307 14.852 103.286 14.9992 103.223 15.1255ZM97.9549 9.21412L95.5219 3.61833L93.11 9.21412H97.9549ZM84.3089 0.252441H82.3836C82.1509 0.252441 81.9605 0.441773 81.9605 0.673178V10.3501L74.2172 0.420736C74.1326 0.315552 74.0056 0.252441 73.8787 0.252441H71.9323C71.6996 0.252441 71.5092 0.441773 71.5092 0.673178V14.873C71.5092 15.1044 71.6996 15.2938 71.9323 15.2938H73.8576C74.0903 15.2938 74.2807 15.1044 74.2807 14.873V4.90158L82.0028 14.7889C82.024 14.8099 82.0451 14.831 82.0451 14.852C82.1932 14.9992 82.426 15.2727 83.0395 15.3148H84.2877C84.5205 15.3148 84.7109 15.1255 84.7109 14.8941V0.673178C84.732 0.441773 84.5416 0.252441 84.3089 0.252441ZM158.843 0.252441H156.918C156.685 0.252441 156.495 0.441773 156.495 0.673178V10.3501L148.752 0.420736C148.667 0.315552 148.54 0.252441 148.413 0.252441H146.467C146.234 0.252441 146.044 0.441773 146.044 0.673178V14.873C146.044 15.1044 146.234 15.2938 146.467 15.2938H148.392C148.625 15.2938 148.815 15.1044 148.815 14.873V4.90158L156.537 14.7889C156.559 14.8099 156.58 14.831 156.58 14.852C156.728 14.9992 156.961 15.2727 157.574 15.3148H158.822C159.055 15.3148 159.245 15.1255 159.245 14.8941V0.673178C159.267 0.441773 159.076 0.252441 158.843 0.252441ZM48.4062 15.0834C48.3427 15.2307 48.1946 15.3148 48.0254 15.3148H46.1425C45.5501 15.3148 45.3385 15.1044 45.2116 14.8941L42.4612 11.0233C41.7631 10.0766 40.3456 10.1187 40.3244 10.1187H40.0917H38.6742V14.873C38.6742 15.1044 38.4838 15.2938 38.2511 15.2938H36.2835C36.0508 15.2938 35.8604 15.1044 35.8604 14.873V0.673178C35.8604 0.441773 36.0508 0.252441 36.2835 0.252441H42.6093C44.4499 0.252441 45.9732 0.778362 46.9887 1.76709C47.8138 2.60856 48.2581 3.74455 48.2581 5.04884V5.09091C48.2581 7.21563 47.1368 8.79339 45.0635 9.55071C44.9788 9.57175 44.8307 9.63486 44.6827 9.6559C44.8096 9.76108 45 9.92938 45.1904 10.2449L48.3427 14.6416C48.4697 14.7678 48.4908 14.9361 48.4062 15.0834ZM45.4231 5.23816V5.19609C45.4231 3.68144 44.323 2.81893 42.4189 2.81893H38.6953V7.61533H42.4401C44.2384 7.61533 45.4231 6.6897 45.4231 5.23816ZM69.3512 32.2494H67.3625V30.9241H72.7786V32.2494H70.7898V37.4245H69.3512V32.2494ZM74.1749 30.9241H77.158C77.9831 30.9241 78.6389 31.1555 79.0621 31.5763C79.4217 31.9339 79.6121 32.4388 79.6121 33.0699V33.0909C79.6121 34.1428 79.0409 34.7949 78.2158 35.1104L79.8025 37.4245H78.1312L76.7348 35.3419H75.6135V37.4245H74.1749V30.9241ZM77.0733 34.1007C77.7715 34.1007 78.1735 33.722 78.1735 33.1751V33.154C78.1735 32.5439 77.7504 32.2284 77.0522 32.2284H75.6135V34.1007H77.0733ZM81.2412 34.6476V30.9241H82.6798V34.6056C82.6798 35.6574 83.2088 36.2044 84.0973 36.2044C84.9859 36.2044 85.5148 35.6784 85.5148 34.6476V30.9241H86.9535V34.5845C86.9535 36.562 85.8322 37.5086 84.0973 37.5086C82.3625 37.5086 81.2412 36.562 81.2412 34.6476ZM88.3498 36.4778L89.1961 35.4681C89.7884 35.9519 90.402 36.2675 91.1425 36.2675C91.7348 36.2675 92.0945 36.0361 92.0945 35.6574V35.6364C92.0945 35.2787 91.8618 35.0894 90.7828 34.8159C89.4711 34.4793 88.6248 34.1217 88.6248 32.8385V32.8174C88.6248 31.6394 89.5769 30.861 90.9097 30.861C91.8618 30.861 92.6657 31.1555 93.3427 31.6814L92.6023 32.7543C92.031 32.3546 91.4598 32.1232 90.9097 32.1232C90.3597 32.1232 90.0635 32.3757 90.0635 32.6912V32.7122C90.0635 33.133 90.3385 33.2802 91.481 33.5748C92.8138 33.9113 93.5543 34.3952 93.5543 35.5312V35.5522C93.5543 36.8355 92.5599 37.5717 91.1636 37.5717C90.1269 37.5297 89.1326 37.1721 88.3498 36.4778ZM96.6643 32.2494H94.6756V30.9241H100.092V32.2494H98.103V37.4245H96.6643V32.2494ZM104.704 30.9241H106.142V37.4245H104.704V30.9241ZM107.708 36.4778L108.554 35.4681C109.147 35.9519 109.76 36.2675 110.501 36.2675C111.093 36.2675 111.453 36.0361 111.453 35.6574V35.6364C111.453 35.2787 111.22 35.0894 110.141 34.8159C108.829 34.4793 107.983 34.1217 107.983 32.8385V32.8174C107.983 31.6394 108.935 30.861 110.268 30.861C111.22 30.861 112.024 31.1555 112.701 31.6814L111.961 32.7543C111.389 32.3546 110.818 32.1232 110.268 32.1232C109.718 32.1232 109.422 32.3757 109.422 32.6912V32.7122C109.422 33.133 109.697 33.2802 110.839 33.5748C112.172 33.9113 112.913 34.3952 112.913 35.5312V35.5522C112.913 36.8355 111.918 37.5717 110.522 37.5717C109.485 37.5297 108.491 37.1721 107.708 36.4778ZM117.567 30.9241H122.496V32.1863H119.006V33.5116H122.095V34.7739H119.006V36.1413H122.56V37.4035H117.588V30.9241H117.567ZM126.58 30.882H127.913L130.705 37.4245H129.203L128.611 35.9729H125.839L125.247 37.4245H123.766L126.58 30.882ZM128.082 34.7107L127.214 32.6071L126.347 34.7107H128.082ZM132.059 30.9241H135.042C135.867 30.9241 136.523 31.1555 136.946 31.5763C137.306 31.9339 137.496 32.4388 137.496 33.0699V33.0909C137.496 34.1428 136.925 34.7949 136.1 35.1104L137.687 37.4245H136.037L134.64 35.3419H133.498V37.4245H132.059V30.9241ZM134.958 34.1007C135.656 34.1007 136.058 33.722 136.058 33.1751V33.154C136.058 32.5439 135.635 32.2284 134.937 32.2284H133.498V34.1007H134.958ZM139.274 30.9241H140.606L143.674 34.9211V30.9241H145.092V37.4245H143.865L140.691 33.3013V37.4245H139.274V30.9241ZM147.102 30.9241H152.031V32.1863H148.54V33.5116H151.629V34.7739H148.54V36.1413H152.095V37.4035H147.123V30.9241H147.102ZM153.872 30.9241H156.41C158.463 30.9241 159.88 32.3336 159.88 34.1638V34.1848C159.88 36.015 158.463 37.4245 156.41 37.4245H153.872V30.9241ZM156.41 36.1413C157.595 36.1413 158.378 35.3418 158.378 34.2059V34.1848C158.378 33.0278 157.574 32.2284 156.41 32.2284H155.289V36.1413H156.41ZM162.377 31.45H161.382V30.9452H163.942V31.45H162.948V34.0796H162.398V31.45H162.377ZM164.704 30.9452H165.296L166.248 32.4177L167.2 30.9452H167.793V34.0796H167.243V31.8287L166.248 33.3013H166.227L165.233 31.8287V34.0586H164.683V30.9452H164.704Z" fill="#2C3B97"/>
</svg>
