<svg width="192" height="28" viewBox="0 0 192 28" fill="none" xmlns="http://www.w3.org/2000/svg">
<g clip-path="url(#clip0_2018_2348)">
<path d="M2.55334 0.5H2.54862C2.01947 0.5 1.59052 0.928968 1.59052 1.45813V20.8047C1.59052 21.3339 2.01947 21.7629 2.54862 21.7629H2.55334C3.08249 21.7629 3.51144 21.3339 3.51144 20.8047V1.45813C3.51144 0.928968 3.08249 0.5 2.55334 0.5Z" fill="#ED1747"/>
<path d="M18.7089 0.5H18.7041C18.175 0.5 17.746 0.928968 17.746 1.45813V20.8047C17.746 21.3339 18.175 21.7629 18.7041 21.7629H18.7089C19.238 21.7629 19.667 21.3339 19.667 20.8047V1.45813C19.667 0.928968 19.238 0.5 18.7089 0.5Z" fill="#ED1747"/>
<path d="M21.2624 20.3021V20.1628C21.2624 19.3626 20.6137 18.7138 19.8134 18.7138H1.44898C0.648748 18.7138 2.86102e-05 19.3626 2.86102e-05 20.1628V20.3021C2.86102e-05 21.1023 0.648748 21.7511 1.44898 21.7511H19.8134C20.6137 21.7511 21.2624 21.1023 21.2624 20.3021Z" fill="#ED1747"/>
<path d="M19.66 3.32246V1.59972L1.59764 1.59972V3.32246L19.66 3.32246Z" fill="#ED1747"/>
<path d="M19.0441 5.89713H2.45666C2.25856 5.89713 2.09796 6.05773 2.09796 6.25584V6.29832C2.09796 6.49643 2.25856 6.65703 2.45666 6.65703H19.0441C19.2422 6.65703 19.4028 6.49643 19.4028 6.29832V6.25584C19.4028 6.05773 19.2422 5.89713 19.0441 5.89713Z" fill="#ED1747"/>
<path d="M19.0441 10.4329H2.45666C2.25856 10.4329 2.09796 10.5935 2.09796 10.7916V10.8341C2.09796 11.0322 2.25856 11.1928 2.45666 11.1928H19.0441C19.2422 11.1928 19.4028 11.0322 19.4028 10.8341V10.7916C19.4028 10.5935 19.2422 10.4329 19.0441 10.4329Z" fill="#ED1747"/>
<path d="M19.0441 14.9663H2.45666C2.25856 14.9663 2.09796 15.1269 2.09796 15.325V15.3675C2.09796 15.5656 2.25856 15.7262 2.45666 15.7262H19.0441C19.2422 15.7262 19.4028 15.5656 19.4028 15.3675V15.325C19.4028 15.1269 19.2422 14.9663 19.0441 14.9663Z" fill="#ED1747"/>
<path d="M5.88318 4.79741H5.87846C5.05476 4.79741 4.38702 5.46516 4.38702 6.28888V6.2936C4.38702 7.11731 5.05476 7.78507 5.87846 7.78507H5.88318C6.70687 7.78507 7.37461 7.11731 7.37461 6.2936V6.28888C7.37461 5.46516 6.70687 4.79741 5.88318 4.79741Z" fill="#50E3C2"/>
<path d="M9.37811 4.79741H9.37339C8.5497 4.79741 7.88196 5.46516 7.88196 6.28888V6.2936C7.88196 7.11731 8.5497 7.78507 9.37339 7.78507H9.37811C10.2018 7.78507 10.8695 7.11731 10.8695 6.2936V6.28888C10.8695 5.46516 10.2018 4.79741 9.37811 4.79741Z" fill="#50E3C2"/>
<path d="M12.8754 4.79741H12.8707C12.047 4.79741 11.3793 5.46516 11.3793 6.28888V6.2936C11.3793 7.11731 12.047 7.78507 12.8707 7.78507H12.8754C13.6991 7.78507 14.3669 7.11731 14.3669 6.2936V6.28888C14.3669 5.46516 13.6991 4.79741 12.8754 4.79741Z" fill="#50E3C2"/>
<path d="M5.88318 13.8548H5.87846C5.05476 13.8548 4.38702 14.5225 4.38702 15.3463V15.351C4.38702 16.1747 5.05476 16.8424 5.87846 16.8424H5.88318C6.70687 16.8424 7.37461 16.1747 7.37461 15.351V15.3463C7.37461 14.5225 6.70687 13.8548 5.88318 13.8548Z" fill="#5308B2"/>
<path d="M10.8672 15.3439C10.8672 14.5215 10.2006 13.8548 9.37817 13.8548C8.55578 13.8548 7.8891 14.5215 7.8891 15.3439V15.3533C7.8891 16.1757 8.55578 16.8424 9.37817 16.8424C10.2006 16.8424 10.8672 16.1757 10.8672 15.3533V15.3439Z" fill="#5308B2"/>
<path d="M12.8754 13.8548H12.8707C12.047 13.8548 11.3793 14.5225 11.3793 15.3463V15.351C11.3793 16.1747 12.047 16.8424 12.8707 16.8424H12.8754C13.6991 16.8424 14.3669 16.1747 14.3669 15.351V15.3463C14.3669 14.5225 13.6991 13.8548 12.8754 13.8548Z" fill="#5308B2"/>
<path d="M5.88318 9.34734H5.87846C5.05476 9.34734 4.38702 10.0151 4.38702 10.8388V10.8435C4.38702 11.6672 5.05476 12.335 5.87846 12.335H5.88318C6.70687 12.335 7.37461 11.6672 7.37461 10.8435V10.8388C7.37461 10.0151 6.70687 9.34734 5.88318 9.34734Z" fill="#F4942A"/>
<path d="M9.37811 9.34734H9.37339C8.5497 9.34734 7.88196 10.0151 7.88196 10.8388V10.8435C7.88196 11.6672 8.5497 12.335 9.37339 12.335H9.37811C10.2018 12.335 10.8695 11.6672 10.8695 10.8435V10.8388C10.8695 10.0151 10.2018 9.34734 9.37811 9.34734Z" fill="#F4942A"/>
<path d="M15.3108 9.34734H15.3061C14.4824 9.34734 13.8147 10.0151 13.8147 10.8388V10.8435C13.8147 11.6672 14.4824 12.335 15.3061 12.335H15.3108C16.1345 12.335 16.8023 11.6672 16.8023 10.8435V10.8388C16.8023 10.0151 16.1345 9.34734 15.3108 9.34734Z" fill="#F4942A"/>
<path d="M190.375 14.9592C189.604 14.289 188.435 13.817 186.873 13.5456C185.419 13.2388 183.068 13.161 181.981 12.2052C181.062 11.2777 181.231 9.42049 182.284 8.61812C183.479 7.68359 185.757 7.66235 187.22 7.97622C188.571 8.26885 189.268 9.25057 189.682 10.5131L191.215 10.1922C190.581 7.30836 188.294 6.28888 185.398 6.34316C183.383 6.35024 181.213 6.98505 180.217 8.80691C179.428 10.322 179.672 12.5615 181.104 13.5598C182.152 14.3173 183.463 14.5698 184.834 14.8271C186.49 15.1645 189.149 15.1244 189.682 17.0289C190.283 19.5445 188.583 20.9628 185.832 20.8637C183.239 20.8189 181.553 20.2525 181.055 17.6542H179.376C179.531 19.9953 181.137 21.5623 183.357 22.0295C185.487 22.5015 188.366 22.4449 190.102 21.0525C191.974 19.7262 191.95 16.2642 190.377 14.9569L190.375 14.9592Z" fill="#ED1747"/>
<path d="M32.6646 12.5828H42.4137V9.55972H32.6646V4.00683H42.9962V0.98378H29.1323V21.7393H43.1418L43.5505 18.7162H32.6646V12.5828Z" fill="#ED1747"/>
<path d="M57.3064 7.78506C56.0851 6.53903 54.4951 6.211 52.588 6.19684C49.2976 6.2346 46.8456 7.15733 46.2209 10.4541L49.2036 10.7751C49.6287 9.16798 50.6903 8.74791 52.4752 8.73375C53.4217 8.73375 54.1545 8.96266 54.6759 9.41813C55.1973 9.87595 55.458 10.6571 55.458 11.7662V12.4081C52.3155 12.6701 48.1796 12.2689 46.1222 15.1055C45.0066 16.7362 45.2345 19.8348 46.9043 21.0974C48.5906 22.4803 51.7143 22.5275 53.4899 21.5198C54.2813 21.062 54.9554 20.505 55.5167 19.8419V21.8242H58.6733V12.1132C58.6545 10.4659 58.3914 8.94378 57.3134 7.7827L57.3064 7.78506ZM55.4533 15.9079C55.4862 18.4401 53.5744 19.6437 51.1976 19.6413C50.3474 19.6413 49.725 19.4501 49.3304 19.0725C48.4403 18.2112 48.5178 16.2949 49.6334 15.587C51.0943 14.6359 53.6143 14.7633 55.4533 14.6548V15.9079Z" fill="#ED1747"/>
<path d="M73.4578 14.4778C72.0158 13.0854 69.4182 12.9037 67.4078 12.5238C66.3979 12.3303 65.3833 12.2406 64.991 11.299C64.7797 10.6099 64.8595 9.75088 65.5524 9.31665C66.6727 8.519 69.4182 8.53788 70.3788 9.28833C70.8485 9.65648 71.2008 10.2205 71.431 10.9804L74.4114 10.5721C74.0825 8.58272 72.8589 7.08181 70.8227 6.54847C68.6807 5.94433 65.3833 6.02929 63.4856 7.43816C61.8157 8.52844 61.3154 10.8954 62.067 12.6441C62.929 14.5462 65.0239 15.0111 67.0156 15.3557C67.9761 15.5586 70.3482 15.7616 70.8391 16.4625C71.4991 17.2035 71.4451 18.6289 70.5784 19.1882C70.1063 19.528 69.3102 19.6979 68.1899 19.6979C66.2969 19.6531 64.8243 19.2519 64.5143 17.1893H61.3577C61.4399 19.7994 63.2507 21.5764 65.6862 22.0461C67.9315 22.5558 71.593 22.3222 73.0092 21.01C74.0614 20.1558 74.5875 19.0466 74.5875 17.6849C74.5734 16.3988 74.3526 15.3439 73.4578 14.4778Z" fill="#ED1747"/>
<path d="M83.6767 17.5976L79.5384 6.66174H75.7172L82.0561 21.3003C81.0486 23.9458 80.7597 25.4467 77.5679 24.5074L76.9596 27.0444C79.731 27.8892 82.5799 27.7665 83.8646 24.8001C84.2662 24.1629 90.5675 7.85114 91.0584 6.66174H87.4697L83.6767 17.5976Z" fill="#ED1747"/>
<path d="M95.3704 11.9126H106.024V10.2488H95.3704V2.57909H106.604V1.00502H93.6348V21.8266H106.691L107.095 20.1935H95.3704V11.9126Z" fill="#ED1747"/>
<path d="M120.933 8.84939C118.676 5.51482 113.492 5.60686 111.188 8.4836C110.005 9.91371 109.413 11.9102 109.413 14.4754C109.41 17.2767 110.338 20.3021 112.922 21.6496C114.488 22.5298 117.246 22.5086 118.756 21.5623C119.573 21.0761 120.299 20.4153 120.935 19.5799V27.4833H122.673V6.80806H120.935V8.84939H120.933ZM121.02 15.0324C121.102 17.6212 119.81 19.8726 117.455 20.6325C115.869 21.0714 113.871 20.8614 112.706 19.4808C110.676 17.1917 110.695 11.6789 112.605 9.31665C114.141 7.45232 117.17 7.30836 119.026 8.79275C121.142 10.2465 121.043 12.6654 121.017 15.0347L121.02 15.0324Z" fill="#ED1747"/>
<path d="M136.824 15.6153C136.824 17.4041 136.328 18.2419 135.116 19.377C133.613 20.8307 130.372 21.4702 129.08 19.7428C128.587 19.0513 128.34 17.9209 128.34 16.3445V6.80806H126.661V16.8118C126.661 18.6006 127.027 19.9622 127.76 20.8944C128.493 21.8266 129.71 22.2938 131.408 22.2938C133.453 22.2938 135.257 21.3216 136.821 19.377V21.8266H138.501V6.80806H136.821V15.6153H136.824Z" fill="#ED1747"/>
<path d="M144.32 6.80806H142.641V21.8266H144.32V6.80806Z" fill="#ED1747"/>
<path d="M144.435 1.00502H142.526V3.54193H144.435V1.00502Z" fill="#ED1747"/>
<path d="M155.263 20.3115C153.365 20.918 151.282 21.1469 151.009 18.5911C150.988 18.4165 150.976 18.2348 150.976 18.0436V8.23817H155.202V6.80806H150.976V2.6664H149.297V6.80806H146.981V8.23817H149.297C149.304 8.62284 149.281 17.7109 149.314 17.725C149.281 19.5209 149.769 21.6543 151.78 22.039C152.999 22.2773 154.481 22.1381 155.608 21.6826L155.26 20.3115H155.263Z" fill="#ED1747"/>
<path d="M159.777 6.80806H158.097V21.8266H159.777V6.80806Z" fill="#ED1747"/>
<path d="M159.892 1.00502H157.982V3.54193H159.892V1.00502Z" fill="#ED1747"/>
<path d="M175.162 8.45528C173.507 6.27236 170.014 5.82633 167.52 6.86706C164.587 8.13433 163.424 11.2895 163.452 14.4778C163.426 18.9782 165.669 22.308 170.226 22.2938C173.479 22.3316 175.773 20.8921 176.363 17.8902H174.742C174.413 19.2543 173.556 20.2926 172.144 20.649C171.012 20.9628 169.134 20.9864 168.046 20.387C165.961 19.3628 165.181 16.9935 165.19 14.7421H176.623C176.673 12.5686 176.518 10.1544 175.162 8.45764V8.45528ZM165.218 13.2813C165.524 9.93259 166.966 7.75439 170.24 7.71191C173.591 7.63403 174.935 10.237 174.888 13.2813H165.218Z" fill="#ED1747"/>
</g>
<defs>
<clipPath id="clip0_2018_2348">
<rect width="192" height="27" fill="white" transform="translate(0 0.5)"/>
</clipPath>
</defs>
</svg>
