<svg id="svg2" width="869.64" height="514.253" viewBox="0 0 869.64001 514.25336" xmlns="http://www.w3.org/2000/svg"><g id="g8"><g id="g10"><path d="M1665.92 547.238l108.71 323.813 108.72-323.812zm671.18-538.7c-43.5 48.25-130.54 198.34-176.63 304.692-46.12 106.45-380.49 979.1-380.49 979.1h-10.7s-334.36-872.65-380.48-979.1c-46.06-106.35-133.16-256.44-176.66-304.69h307.16c-6.58 100.85 35.04 203.73 58.67 267.66 23.64 63.902 52.07 131.82 52.07 131.82h289.16s28.43-67.918 52.1-131.82c23.64-63.93 65.2-166.81 58.67-267.66h307.13" id="path12" fill="#231f20" transform="matrix(.13333 0 0 -.13333 0 514.253)"/><path d="M0 1291.07c75.922-61.19 111.758-92.78 172.992-172.93V346.13c0-23.302-2.207-204.642-42.168-337.59h272.082c-40.113 103.43-52.73 263.66-52.73 375.41v506.288l437.793-698.25c46.378-75.328 74.31-113.79 109.663-183.45h238.337c-18.94 52.75-42.21 120.212-42.21 318.41v689.962c0 137 14.84 206.69 31.69 274.16H878.71c20.993-73.89 35.806-132.91 35.806-369.172V337.5l-471.493 736.16c-101.28 128.89-113.93 160.43-137.12 217.41H0" id="path14" fill="#231f20" transform="matrix(.13333 0 0 -.13333 0 514.253)"/><path d="M2982.82 1244.59c-61.16 25.32-143.48 61.2-261.57 61.2-208.82 0-379.63-168.7-379.63-371.29 0-196.04 109.61-263.7 383.83-434.59 38-25.1 107.61-82.238 107.61-170.79 0-90.69-80.16-179.23-192-179.23-118.14 0-191.96 88.54-251.02 156.02V33.7C2449.1 17 2510.36 0 2611.55 0c267.91 0 434.58 153.988 434.58 364.93 0 124.492-52.78 225.89-236.31 331.3-162.37 92.758-269.99 156.22-269.99 276.39 0 101.22 88.61 172.77 200.37 172.77 113.95 0 185.62-54.73 242.62-101.17v200.37" id="path16" fill="#231f20" transform="matrix(.13333 0 0 -.13333 0 514.253)"/><path d="M3220.96 426.13c0-210.93-33.79-328.9-56.96-417.59h299.5c-25.36 99.23-50.59 263.66-50.59 362.84v208.89l75.9-2.18c162.42-12.64 460.84 73.762 460.84 354.37 0 217.15-216.13 358.57-473.42 358.57h-303.86c19.04-46.44 48.59-115.96 48.59-343.81zm191.95 637.03c0 42.26 4.15 99.22 6.37 143.44 61.1-8.44 341.97-58.32 341.97-286.87 0-229.94-266.05-238.42-348.34-251.1v394.53" id="path18" fill="#231f20" transform="matrix(.13333 0 0 -.13333 0 514.253)"/><path d="M4018.36 1291.07c35.88-109.71 48.44-238.38 48.44-324.87V337.5c0-164.54-27.35-255.262-48.44-328.96h672.93l92.74 213.08c-272.15-92.87-362.77-92.87-525.19-92.87v470.54c97.04-8.61 145.58-14.88 291.07-56.98l109.67 179.178h-400.74v449.402c134.94 4.18 208.82-12.73 354.4-78.2l97.01 198.38h-691.89" id="path20" fill="#231f20" transform="matrix(.13333 0 0 -.13333 0 514.253)"/><path d="M4921.2 339.7c0-111.77-6.29-204.51-33.76-331.16h259.49c-33.71 137.21-35.92 177.21-35.92 276.37v316.41c265.73-352.34 345.97-445.082 518.89-592.78h175.14c-151.88 181.42-310.07 373.382-423.96 573.83 56.88 31.552 242.6 134.91 242.6 343.81 0 172.94-156.17 371.21-485.25 364.9l-250.99-2.18c14.81-44.27 33.76-116.04 33.76-265.72zm189.81 841.66c257.42-25.29 318.53-179.24 318.53-274.33 0-198.178-196.21-253-318.53-286.768v561.098" id="path22" fill="#231f20" transform="matrix(.13333 0 0 -.13333 0 514.253)"/><path d="M6458.82 1244.65c-61.03 25.26-143.38 61.14-259.27 61.14-210.94 0-379.74-168.7-379.74-371.29 0-196.04 107.62-263.66 381.69-434.59 38.05-25.1 107.67-82.238 107.67-170.79 0-90.69-80.16-179.23-189.86-179.23-118.11 0-194.02 88.54-253.05 156.09V33.78C5927.43 17 5986.47.09 6087.71.09c267.89 0 434.54 153.98 434.54 364.84 0 124.492-50.71 225.89-236.27 331.3-160.29 92.81-267.89 156.22-267.89 276.4 0 101.25 86.51 172.79 198.23 172.79 113.93 0 185.58-54.76 242.5-101.18v200.41" id="path24" fill="#231f20" transform="matrix(.13333 0 0 -.13333 0 514.253)"/><path d="M2754.46 2850.9c88.36-19.93 121.73 5.73 145.98 48.58 24.25 42.9 29.05 84.68-33.55 150.18l-446.01 431.68-6.51 6.3c-50.1-52.92-95.36-110.45-135.06-171.92l9.74-6.06 555.68-345.77c13.78-7.8 18.67-25.28 10.85-39.09-7.79-13.78-25.31-18.62-39.09-10.83l-582.73 298.36-11.12 5.68c-33.41-64.52-61-132.53-82.18-203.31l14.27-3.8 599.73-160" id="path26" fill="#f25d1b" transform="matrix(.13333 0 0 -.13333 0 514.253)"/><path d="M2629.17 2683.82s254.94-.37 351.48 170.3c96.56 170.64-35.06 388.96-35.06 388.96l-246.72 457.52-3.31 6.11a1183.39 1183.39 0 0 1-188.1-130.88l5.28-6.03 361.81-413.49s126.49-144.58 54-272.72c-72.51-128.16-261.59-94.16-261.59-94.16l-540.76 97.15-15.86 2.86c-12.67-69.34-19.34-140.76-19.34-213.76 0-5.63.14-11.24.22-16.85l18.68.87 519.27 24.12" id="path28" fill="#f25d1b" transform="matrix(.13333 0 0 -.13333 0 514.253)"/><path d="M2818.57 2566.04c164.69 94.1 242.27 242.67 242.27 242.67s87.39 143.02 83.26 332.64c-3.47 157.2-91.51 549.63-122.37 682.74-.47 2.04-.9 3.89-1.34 5.8a1172.935 1172.935 0 0 1-219.31-70.79c.84-1.95 1.68-3.89 2.6-6.01 53.06-123.25 225.42-525.41 244.56-594.4 24.49-88.33 31.93-213.07-31.67-325.49-63.6-112.39-173.86-169.42-262.2-193.91-69.01-19.14-502.45-78.51-635.44-96.51-7.85-1.07-14.51-1.95-20.13-2.71 8.99-78.59 25.67-154.83 49.31-227.95 6.26 2.01 13.61 4.39 22.23 7.18 129.99 42.12 511.72 168.76 648.23 246.74" id="path30" fill="#f25d1b" transform="matrix(.13333 0 0 -.13333 0 514.253)"/><path d="M3670.74 3053.02c-61.46-66.57-55.92-108.3-30.91-150.75 24.97-42.41 58.78-67.46 146.82-46.01l596.82 170.4 15.47 4.41a1173.335 1173.335 0 0 1-85.4 202.48l-12.8-6.85-577.31-308.36c-13.64-8.05-31.21-3.5-39.26 10.15-8.06 13.64-3.5 31.23 10.16 39.26l549.75 355.48 11.26 7.29c-40.7 60.96-86.92 117.9-137.93 170.16l-8.26-8.29-438.41-439.37" id="path32" fill="#f25d1b" transform="matrix(.13333 0 0 -.13333 0 514.253)"/><path d="M4414.17 2902.88l-538.99-106.55s-188.46-37.3-263.2 89.55c-74.73 126.91 49.26 273.66 49.26 273.66l354.52 419.7 7.12 8.44a1182.182 1182.182 0 0 1-190.74 128.26l-4.72-9.15-238.73-461.74s-127.78-220.6-28.29-389.53c99.53-168.97 354.4-164.11 354.4-164.11l519.59-15.1 18.99-.55c0 78.86-7.8 155.88-22.55 230.42l-16.66-3.3" id="path34" fill="#f25d1b" transform="matrix(.13333 0 0 -.13333 0 514.253)"/><path d="M3790.39 2644.7c-88.77 22.94-200.49 78.86-266.04 190.15-65.54 111.25-59.78 235.28-36.85 324.07 17.94 69.28 183.24 474.37 234.15 598.53 1.34 3.31 2.6 6.36 3.8 9.27-70.49 29.31-144.43 52-221.04 67.28-.65-2.98-1.31-6.07-2-9.37-28.54-133.61-109.71-527.48-110.45-684.74-.86-189.64 89.05-331.14 89.05-331.14s80.14-147.19 246.45-238.41c137.86-75.58 521.72-195.56 652.42-235.41 8.3-2.53 15.43-4.69 21.57-6.55 22.55 73.4 38.15 149.84 46.02 228.56-5.61.64-12.25 1.42-20.05 2.34-133.25 15.67-567.73 67.48-637.03 85.42" id="path36" fill="#f25d1b" transform="matrix(.13333 0 0 -.13333 0 514.253)"/><path d="M3381.19 2143.43c-26.94 86.52-65.84 102.58-115.1 102.18-49.24-.45-87.83-17.17-113.24-104.15l-150.84-602.09-3.25-13c70.23-16.64 142.89-27.03 217.34-30.52l.51 15.17 21.6 654.12c-.15 15.83 12.58 28.79 28.42 28.93 15.84.13 28.79-12.6 28.92-28.43l32.98-653.85.81-15.89c74.64 3.55 147.43 14.07 217.82 30.84l-4.67 17.33-161.3 599.36" id="path38" fill="#f25d1b" transform="matrix(.13333 0 0 -.13333 0 514.253)"/><path d="M3588.52 2118.48s-127.15 220.95-323.22 219.25c-196.08-1.69-319.31-224.82-319.31-224.82l-272.87-442.45-5.82-9.45c65.54-39.14 135.17-72.12 208.12-98.15l4.04 11.83 177.18 520.06s61.95 181.84 209.19 183.13c147.24 1.28 212.34-179.48 212.34-179.48l186.24-516.88 6.45-17.97c73.53 26.35 143.68 59.78 209.63 99.47l-11.44 17.85-280.53 437.61" id="path40" fill="#f25d1b" transform="matrix(.13333 0 0 -.13333 0 514.253)"/><path d="M3595.81 2341.41c-163.83 95.58-331.28 88.48-331.28 88.48s-167.57 4.2-329.69-94.24c-134.43-81.59-430.26-354.04-530.12-447.31-2.5-2.33-4.84-4.53-7.07-6.62 51.87-57.11 109.28-109.07 171.35-155.14 1.96 2.62 4.02 5.39 6.27 8.42 80.19 107.56 342.3 457.91 392.48 508.96 64.25 65.39 168.54 134.19 297.69 135.32 129.13 1.15 233.66-65.83 299.07-130.09 51.04-50.21 319.22-395.89 401.29-502.07 5.38-6.97 9.91-12.86 13.58-17.6 62.49 46.77 120.14 99.65 172.19 157.63-5 4.54-10.95 9.93-17.97 16.26-101.46 91.53-401.97 358.77-537.79 438" id="path42" fill="#f25d1b" transform="matrix(.13333 0 0 -.13333 0 514.253)"/><path d="M3265.34 2545.63c-100.81-.89-180.95-2.09-267.02-23.55 59.29 64.13 113.41 141.55 162.35 228.09 49.63 87.72 83.79 164.24 108.25 249.51 25.89-83.44 61-162.41 111.44-248.07 51.17-86.89 97.14-162.22 158.79-226.03-85.21 19.3-174.41 20.9-273.81 20.05zm491.92-77.85c-148.99 82.24-231.58 179.04-313.92 318.79-82.31 139.78-126.94 258.97-126.63 429.1.23 125.54 41.37 460.1 62.96 627.06.4 3.11.79 6.13 1.18 9.13-35.8 3.27-72.03 5.02-108.67 5.02-43.54 0-86.52-2.43-128.85-7.02.28-1.86.55-3.68.83-5.58 24.49-166.53 71.46-500.32 73.84-625.81 3.28-170.15-39.26-290.09-119.14-431.28-79.86-141.18-160.77-239.39-308.28-324.21-108.8-62.58-419.12-194.23-574.49-259-8.08-3.37-15.68-6.53-22.88-9.52 34.25-76.66 76.44-148.99 125.52-215.99 2.39 1.89 4.8 3.81 7.29 5.78 132 104.5 397.6 312.05 505.08 376.87 145.68 87.9 270.83 111.05 433.04 112.45 162.22 1.42 287.71-19.53 434.93-104.86 108.61-62.96 377.77-265.86 511.56-368.04 7.09-5.4 13.75-10.5 20.05-15.33 50.23 69.63 93.07 144.95 127.36 224.83-6.89 2.71-14.17 5.59-21.85 8.65-156.49 62.07-469.05 188.29-578.93 248.96" id="path44" fill="#f25d1b" transform="matrix(.13333 0 0 -.13333 0 514.253)"/></g></g></svg>