<svg width="145" height="31" viewBox="0 0 145 31" fill="none" xmlns="http://www.w3.org/2000/svg">
<path fill-rule="evenodd" clip-rule="evenodd" d="M40.1001 20.7002L41.7001 18.5002C42.8001 19.7002 44.5001 20.7002 46.7001 20.7002C49.0001 20.7002 49.9001 19.6002 49.9001 18.5002C49.9001 15.2002 40.7001 17.2002 40.7001 11.4002C40.7001 8.8002 43.0001 6.7002 46.5001 6.7002C48.9001 6.7002 51.0001 7.5002 52.4001 8.9002L50.8001 11.0002C49.5001 9.7002 47.9001 9.2002 46.2001 9.2002C44.6001 9.2002 43.5001 10.0002 43.5001 11.2002C43.5001 14.2002 52.7001 12.3002 52.7001 18.2002C52.7001 20.8002 50.8001 23.1002 46.6001 23.1002C43.7001 23.3002 41.5001 22.2002 40.1001 20.7002" fill="black"/>
<path fill-rule="evenodd" clip-rule="evenodd" d="M62.9998 23.0002V15.8002C62.9998 14.0002 62.0998 13.4002 60.6998 13.4002C59.3998 13.4002 58.2998 14.2002 57.7998 14.9002V22.9002H55.2998V11.5002H57.7998V13.0002C58.5998 12.1002 60.0998 11.2002 61.8998 11.2002C64.3998 11.2002 65.5998 12.5002 65.5998 14.9002V23.0002H62.9998Z" fill="black"/>
<path fill-rule="evenodd" clip-rule="evenodd" d="M75.7 21.7002V23.0002H78.2V15.3002C78.2 12.3002 76 11.2002 73.4 11.2002C71.6 11.2002 69.9 11.8002 68.6 13.1002L69.6 14.8002C70.6 13.8002 71.7 13.3002 73 13.3002C74.6 13.3002 75.7 14.1002 75.7 15.4002V17.1002C74.9 16.1002 73.6 15.6002 72 15.6002C70.1 15.6002 68 16.7002 68 19.4002C68 21.9002 70.1 23.2002 72 23.2002C73.5 23.2002 74.8 22.7002 75.7 21.7002ZM73 17.4002C74 17.4002 75.1 17.8002 75.7 18.6002V20.4002C75.2 21.1002 74.1 21.5002 73 21.6002C71.6 21.6002 70.5 20.8002 70.5 19.5002C70.5 18.2002 71.6 17.4002 73 17.4002Z" fill="black"/>
<path fill-rule="evenodd" clip-rule="evenodd" d="M84 27.4002V21.4002C84.9 22.6002 86.2 23.3002 87.7 23.2002C90.7 23.2002 92.8 21.0002 92.8 17.2002C92.8 13.4002 90.7 11.2002 87.7 11.2002C86.2 11.2002 84.9 12.0002 84 13.1002V11.5002H81.5V27.4002H84ZM86.9 13.4002C88.9 13.4002 90.2 15.0002 90.2 17.2002C90.2 19.5002 88.9 21.0002 86.9 21.0002C85.8 21.0002 84.5 20.3002 84 19.4002V14.9002C84.5 14.1002 85.7 13.4002 86.9 13.4002Z" fill="black"/>
<path fill-rule="evenodd" clip-rule="evenodd" d="M94.2998 20.7002L95.8998 18.5002C96.9998 19.7002 98.6998 20.7002 100.9 20.7002C103.2 20.7002 104.1 19.6002 104.1 18.5002C104.1 15.2002 94.8998 17.2002 94.8998 11.4002C94.8998 8.8002 97.1998 6.7002 100.7 6.7002C103.1 6.7002 105.2 7.5002 106.6 8.9002L105 11.0002C103.7 9.7002 102.1 9.2002 100.4 9.2002C98.7998 9.2002 97.6998 10.0002 97.6998 11.2002C97.6998 14.2002 106.9 12.3002 106.9 18.2002C106.9 20.8002 105 23.1002 100.8 23.1002C97.7998 23.3002 95.6998 22.2002 94.2998 20.7002" fill="black"/>
<path fill-rule="evenodd" clip-rule="evenodd" d="M108.7 17.2002C108.7 13.7002 111.1 11.2002 114.6 11.2002C116.9 11.2002 118.2 12.2002 119 13.2002L117.4 14.7002C116.8 13.8002 115.9 13.4002 114.8 13.4002C112.7 13.4002 111.3 15.0002 111.3 17.2002C111.3 19.4002 112.7 21.0002 114.8 21.0002C115.9 21.0002 116.8 20.5002 117.4 19.6002L119 21.1002C118.2 22.2002 116.9 23.1002 114.6 23.1002C111.1 23.3002 108.7 20.7002 108.7 17.2002" fill="black"/>
<path fill-rule="evenodd" clip-rule="evenodd" d="M128.3 21.7002V23.0002H130.8V15.3002C130.8 12.3002 128.6 11.2002 126 11.2002C124.2 11.2002 122.5 11.8002 121.2 13.1002L122.2 14.8002C123.2 13.8002 124.3 13.3002 125.6 13.3002C127.2 13.3002 128.3 14.1002 128.3 15.4002V17.1002C127.5 16.1002 126.2 15.6002 124.6 15.6002C122.7 15.6002 120.6 16.7002 120.6 19.4002C120.6 21.9002 122.7 23.2002 124.6 23.2002C126.1 23.2002 127.4 22.7002 128.3 21.7002ZM125.6 17.4002C126.6 17.4002 127.7 17.8002 128.3 18.6002V20.4002C127.7 21.1002 126.6 21.5002 125.6 21.6002C124.2 21.6002 123.1 20.8002 123.1 19.5002C123.1 18.2002 124.2 17.4002 125.6 17.4002Z" fill="black"/>
<path fill-rule="evenodd" clip-rule="evenodd" d="M141.8 23.0002V15.8002C141.8 14.0002 140.9 13.4002 139.5 13.4002C138.2 13.4002 137.1 14.2002 136.6 14.9002V22.9002H134V11.5002H136.5V13.0002C137.3 12.1002 138.8 11.2002 140.6 11.2002C143.1 11.2002 144.3 12.5002 144.3 14.9002V23.0002H141.8Z" fill="black"/>
<path fill-rule="evenodd" clip-rule="evenodd" d="M0 16C0 7.68919 6.68919 1 15 1C23.3108 1 30 7.68919 30 16C30 24.3108 23.3108 31 15 31C6.68919 31 0 24.3108 0 16ZM1.01351 16C1.01351 23.7027 7.2973 29.9865 15 29.9865C22.7027 29.9865 28.9865 23.7027 28.9865 16C28.9865 8.2973 22.7027 2.01351 15 2.01351C7.2973 2.01351 1.01351 8.2973 1.01351 16Z" fill="black"/>
<path fill-rule="evenodd" clip-rule="evenodd" d="M13.0741 10H9.92593C9.46296 10 9 10.3704 9 10.9259V14.0741C9 14.537 9.37037 15 9.92593 15H13.0741C13.537 15 14 14.6296 14 14.0741V10.9259C13.9074 10.3704 13.537 10 13.0741 10" fill="black"/>
<path fill-rule="evenodd" clip-rule="evenodd" d="M13.0741 17H9.92593C9.46296 17 9 17.3704 9 17.9259V21.0741C9 21.537 9.37037 22 9.92593 22H13.0741C13.537 22 14 21.6296 14 21.0741V17.9259C13.9074 17.3704 13.537 17 13.0741 17" fill="black"/>
<path fill-rule="evenodd" clip-rule="evenodd" d="M20.0741 10H16.9259C16.463 10 16 10.3704 16 10.9259V14.0741C16 14.537 16.3704 15 16.9259 15H20.0741C20.537 15 21 14.6296 21 14.0741V10.9259C21 10.3704 20.6296 10 20.0741 10" fill="black"/>
</svg>
