<svg xmlns="http://www.w3.org/2000/svg" viewBox="0 0 32 32" width="32" height="32">
  <rect width="32" height="32" rx="6" fill="#0B1933"/>
  <g transform="translate(5, 5) scale(0.34)">
    <path
      d="M33.1,25.1c-5.6,5.6-8.7,13-8.7,20.9c0,7.9,3.1,15.3,8.7,20.9c5.6,5.6,13,8.7,20.9,8.7c7.9,0,15.3-3.1,20.9-8.7l0.7-0.7L33.8,24.4L33.1,25.1z M51.7,45.1H35c0.2-4.4,1.9-8.5,4.9-11.8L51.7,45.1z M51.5,47.1L39.8,58.8c-2.9-3.2-4.6-7.3-4.8-11.6H51.5z M53.3,48.1V65c-4.3-0.1-8.6-1.7-12.1-4.8L53.3,48.1z M55.3,48.8l11.3,11.3c-3.2,2.9-7.2,4.6-11.3,4.9V48.8z M38.5,31.9c-3.6,3.9-5.5,8.9-5.5,14.2c0,5.6,2.2,10.9,6.1,14.8C43.2,65,48.5,67,53.9,67c0.1,0,0.2,0,0.3,0c0,0,0.1,0,0.1,0c0.1,0,0.1,0,0.2,0c4.9-0.1,9.7-2,13.6-5.5l4.7,4.7C67.6,71,61,73.6,54,73.6c-7.4,0-14.3-2.9-19.5-8.1S26.4,53.4,26.4,46c0-7,2.6-13.7,7.4-18.8L38.5,31.9z"
      fill="#B8FF00"
    />
  </g>
</svg>
